<?xml version="1.0" encoding="UTF-8" ?>
<!DOCTYPE svg PUBLIC "-//W3C//DTD SVG 1.1//EN" "http://www.w3.org/Graphics/SVG/1.1/DTD/svg11.dtd">
<svg width="155pt" height="35pt" viewBox="0 0 155 35" version="1.1" xmlns="http://www.w3.org/2000/svg">
<path fill="#ffffff" d=" M 0.00 0.00 L 155.00 0.00 L 155.00 35.00 L 0.00 35.00 L 0.00 0.00 Z" />
<path fill="#191919" d=" M 13.11 5.66 C 32.27 2.83 51.61 1.04 70.99 0.61 C 76.79 0.76 82.63 -0.04 88.39 0.88 C 88.42 1.51 88.48 2.77 88.51 3.40 C 79.40 1.80 70.19 3.46 61.02 3.05 C 42.80 3.98 24.54 5.54 6.61 9.04 C 8.04 11.45 12.26 11.52 12.16 14.76 C 8.60 12.48 5.13 10.03 1.35 8.12 L 1.51 6.74 C 5.39 6.46 9.31 6.68 13.11 5.66 Z" />
<path fill="#191919" d=" M 33.04 14.01 C 34.59 11.48 35.97 8.66 38.57 7.03 C 38.98 8.24 38.83 9.34 38.11 10.33 C 35.06 14.66 32.03 19.09 30.03 24.02 C 28.84 26.37 26.99 29.18 23.97 28.74 C 26.77 23.70 30.16 19.01 33.04 14.01 Z" />
<path fill="#191919" d=" M 43.63 7.51 C 44.24 7.33 45.45 6.98 46.06 6.80 C 43.45 15.23 35.65 21.03 33.47 29.63 C 32.85 29.67 31.61 29.74 30.99 29.78 C 31.55 26.28 33.72 23.43 35.49 20.47 C 38.32 16.22 41.08 11.93 43.63 7.51 Z" />
<path fill="#191919" d=" M 133.95 18.23 C 140.50 19.40 147.03 17.21 153.36 15.69 C 155.05 17.05 152.59 18.54 151.47 19.16 C 144.40 22.94 137.76 27.67 130.05 30.10 C 128.12 30.83 126.12 31.52 124.03 31.20 C 126.31 29.47 128.99 28.45 131.64 27.45 C 136.58 25.59 140.78 22.25 145.71 20.38 C 141.43 20.13 137.24 21.44 132.97 20.81 C 126.34 21.55 119.72 22.60 113.03 22.65 C 111.77 22.00 110.57 20.64 109.01 21.08 C 102.76 21.85 96.10 24.24 89.94 21.99 C 84.66 23.18 79.35 24.43 73.93 24.73 C 72.12 25.02 70.77 23.33 69.04 23.25 C 62.45 24.74 55.81 27.03 48.97 26.48 C 46.37 25.97 45.59 23.26 45.65 20.95 C 49.41 18.66 53.57 16.59 58.07 16.56 C 60.87 17.43 61.64 20.28 61.53 22.91 C 65.92 22.60 69.49 19.88 73.69 18.99 C 73.42 20.16 73.16 21.33 72.88 22.50 C 79.66 22.46 86.28 20.75 92.58 18.37 C 92.80 19.01 93.25 20.29 93.48 20.93 C 100.50 20.45 107.50 19.51 114.28 17.59 C 114.33 18.26 114.43 19.60 114.48 20.27 C 121.03 20.34 127.51 19.35 133.95 18.23 Z" />
<path fill="#ffffff" d=" M 47.75 22.03 C 50.03 20.95 52.23 19.49 54.81 19.31 C 56.09 19.41 58.09 18.52 58.75 20.11 C 59.71 21.22 58.16 22.40 57.89 23.51 C 54.66 23.62 49.16 26.42 47.75 22.03 Z" />
</svg>
